<svg width="40" height="40" viewBox="0 0 40 40" fill="none" xmlns="http://www.w3.org/2000/svg">
<path d="M38.5488 12.9024C39.4986 12.9024 40 12.3747 40 11.3984V6.22689C40 2.11084 37.8892 0 33.7203 0H28.5488C27.5725 0 27.0449 0.527723 27.0449 1.47758C27.0449 2.42744 27.5725 2.92875 28.5488 2.92875H33.6675C35.8311 2.92875 37.0712 4.1161 37.0712 6.38522V11.3984C37.0712 12.3747 37.5989 12.9024 38.5488 12.9024ZM1.47757 12.9024C2.42743 12.9024 2.92874 12.3747 2.92874 11.3984V6.38522C2.92874 4.1161 4.14246 2.92875 6.33247 2.92875H11.4776C12.4275 2.92875 12.9551 2.42744 12.9551 1.47758C12.9551 0.527723 12.4275 0 11.4776 0H6.27967C2.11083 0 0 2.08442 0 6.22689V11.3984C0 12.3747 0.527713 12.9024 1.47757 12.9024ZM10.8443 19.1029H18.153C18.6543 19.1029 19.0501 18.7071 19.0501 18.2058V10.8971C19.0501 10.3958 18.6543 10 18.153 10H10.8443C10.343 10 9.94721 10.3958 9.94721 10.8971V18.2058C9.94721 18.7071 10.343 19.1029 10.8443 19.1029ZM21.7678 19.1029H29.0501C29.5778 19.1029 29.9736 18.7071 29.9736 18.2058V10.8971C29.9736 10.3958 29.5778 10 29.0501 10H21.7678C21.2665 10 20.8443 10.3958 20.8443 10.8971V18.2058C20.8443 18.7071 21.2665 19.1029 21.7678 19.1029ZM11.7414 17.2823V11.8206H17.2295V17.2823H11.7414ZM22.6649 17.2823V11.8206H28.153V17.2823H22.6649ZM13.3509 15.6728H15.6464V13.4037H13.3509V15.6728ZM24.2744 15.6728H26.5435V13.4037H24.2744V15.6728ZM10.8443 30.0264H18.153C18.6543 30.0264 19.0501 29.6306 19.0501 29.1293V21.8206C19.0501 21.3192 18.6543 20.9235 18.153 20.9235H10.8443C10.343 20.9235 9.94721 21.3192 9.94721 21.8206V29.1293C9.94721 29.6306 10.343 30.0264 10.8443 30.0264ZM21.1082 23.4564H23.4037V21.161H21.1082V23.4564ZM27.4142 23.4564H29.7097V21.161H27.4142V23.4564ZM11.7414 28.2058V22.744H17.2295V28.2058H11.7414ZM13.3509 26.5963H15.6464V24.3271H13.3509V26.5963ZM24.2744 26.5963H26.5435V24.3271H24.2744V26.5963ZM6.27967 40H11.4776C12.4275 40 12.9551 39.4723 12.9551 38.5488C12.9551 37.5989 12.4275 37.0712 11.4776 37.0712H6.33247C4.14246 37.0712 2.92874 35.9103 2.92874 33.6411V28.6016C2.92874 27.6517 2.40106 27.124 1.47757 27.124C0.501343 27.124 0 27.6517 0 28.6016V33.7995C0 37.9155 2.11083 40 6.27967 40ZM28.5488 40H33.7203C37.8892 40 40 37.9155 40 33.7995V28.6016C40 27.6517 39.4723 27.124 38.5488 27.124C37.5726 27.124 37.0712 27.6517 37.0712 28.6016V33.6411C37.0712 35.9103 35.8311 37.0712 33.6675 37.0712H28.5488C27.5725 37.0712 27.0449 37.5989 27.0449 38.5488C27.0449 39.4723 27.5725 40 28.5488 40ZM21.1082 29.7625H23.4037V27.467H21.1082V29.7625ZM27.4142 29.7625H29.7097V27.467H27.4142V29.7625Z" fill="black"/>
</svg>
