<svg width="40" height="40" viewBox="0 0 40 40" fill="none" xmlns="http://www.w3.org/2000/svg">
<path d="M18.4125 0.724499V3.07943C10.023 3.89946 3.33661 11.0905 3.33661 19.6692C3.33661 24.6945 5.64951 29.2572 9.24501 32.3061C9.87583 32.8528 10.6328 32.7897 11.0323 32.201C11.4528 31.6332 11.3266 30.9604 10.78 30.4768C7.73113 27.8905 5.7967 24.0007 5.7967 19.6692C5.7967 12.331 11.3056 6.33854 18.4125 5.56053V8.18886C18.4125 9.24018 19.1485 9.53455 19.9895 8.94581L25.162 5.30823C25.8558 4.82465 25.8769 4.10973 25.162 3.60509L19.9895 -0.032444C19.1485 -0.621357 18.4125 -0.347874 18.4125 0.724499ZM21.5875 38.593V36.238C29.977 35.439 36.6634 28.248 36.6634 19.6692C36.6634 14.6229 34.3505 10.0602 30.734 6.99036C30.1242 6.46471 29.3462 6.54881 28.9467 7.09548C28.5262 7.68422 28.6734 8.35707 29.22 8.84065C32.2689 11.4269 34.2033 15.2958 34.2033 19.6692C34.2033 27.0074 28.7154 32.9789 21.5875 33.7569V31.1286C21.5875 30.0773 20.8516 29.7829 20.0316 30.3716L14.838 34.0092C14.1442 34.4928 14.1231 35.2287 14.838 35.7124L20.0105 39.3499C20.8516 39.9597 21.5875 39.6653 21.5875 38.593Z" fill="black"/>
</svg>
