<svg width="40" height="40" viewBox="0 0 40 40" fill="none" xmlns="http://www.w3.org/2000/svg">
<path d="M38.9389 18.0759H36.5839C35.7639 9.68641 28.5729 3 19.9941 3C14.9688 3 10.4061 5.3129 7.35728 8.9084C6.81057 9.53922 6.87366 10.2962 7.4624 10.6957C8.03013 11.1162 8.70297 10.99 9.18656 10.4434C11.7728 7.39452 15.6627 5.46009 19.9941 5.46009C27.3323 5.46009 33.3248 10.969 34.1028 18.0759H31.4745C30.4232 18.0759 30.1288 18.8118 30.7176 19.6529L34.3551 24.8254C34.8387 25.5192 35.5536 25.5403 36.0583 24.8254L39.6958 19.6529C40.2847 18.8118 40.0112 18.0759 38.9389 18.0759ZM1.07039 21.2509H3.42534C4.22435 29.6404 11.4154 36.3268 19.9941 36.3268C25.0404 36.3268 29.6031 34.0139 32.673 30.3974C33.1987 29.7876 33.1146 29.0096 32.5679 28.6101C31.9791 28.1896 31.3063 28.3368 30.8227 28.8834C28.2364 31.9323 24.3676 33.8667 19.9941 33.8667C12.6559 33.8667 6.68444 28.3788 5.90644 21.2509H8.53477C9.58609 21.2509 9.88046 20.5149 9.29171 19.695L5.65414 14.5014C5.17055 13.8076 4.43462 13.7865 3.95099 14.5014L0.313445 19.6739C-0.296322 20.5149 -0.00194987 21.2509 1.07039 21.2509Z" fill="black"/>
</svg>
