<svg width="40" height="40" viewBox="0 0 40 40" fill="none" xmlns="http://www.w3.org/2000/svg">
<path d="M6.11432 38.7373H33.86C37.9448 38.7373 40 36.7078 40 32.7001V8.06292C40 4.05526 37.9448 2 33.86 2H6.11432C2.05525 2 0 4.02953 0 8.06292V32.7001C0 36.7078 2.05525 38.7373 6.11432 38.7373ZM5.88313 35.8857C3.93062 35.8857 2.85162 34.8581 2.85162 32.8285V14.1516C2.85162 12.122 3.93062 11.0944 5.88313 11.0944H34.0912C36.018 11.0944 37.1227 12.122 37.1227 14.1516V32.8285C37.1227 34.8581 36.018 35.8857 34.0912 35.8857H5.88313ZM16.0308 18.262H17.2126C17.8805 18.262 18.0861 18.0822 18.0861 17.4143V16.2325C18.0861 15.5903 17.8805 15.3847 17.2126 15.3847H16.0308C15.3629 15.3847 15.1573 15.5903 15.1573 16.2325V17.4143C15.1573 18.0822 15.3629 18.262 16.0308 18.262ZM22.7874 18.262H23.9692C24.6371 18.262 24.8426 18.0822 24.8426 17.4143V16.2325C24.8426 15.5903 24.6371 15.3847 23.9692 15.3847H22.7874C22.1194 15.3847 21.9139 15.5903 21.9139 16.2325V17.4143C21.9139 18.0822 22.1194 18.262 22.7874 18.262ZM29.544 18.262H30.7258C31.3937 18.262 31.5992 18.0822 31.5992 17.4143V16.2325C31.5992 15.5903 31.3937 15.3847 30.7258 15.3847H29.544C28.876 15.3847 28.6705 15.5903 28.6705 16.2325V17.4143C28.6705 18.0822 28.876 18.262 29.544 18.262ZM9.27426 24.9159H10.456C11.124 24.9159 11.3295 24.736 11.3295 24.0681V22.8863C11.3295 22.2441 11.124 22.0386 10.456 22.0386H9.27426C8.60627 22.0386 8.40076 22.2441 8.40076 22.8863V24.0681C8.40076 24.736 8.60627 24.9159 9.27426 24.9159ZM16.0308 24.9159H17.2126C17.8805 24.9159 18.0861 24.736 18.0861 24.0681V22.8863C18.0861 22.2441 17.8805 22.0386 17.2126 22.0386H16.0308C15.3629 22.0386 15.1573 22.2441 15.1573 22.8863V24.0681C15.1573 24.736 15.3629 24.9159 16.0308 24.9159ZM22.7874 24.9159H23.9692C24.6371 24.9159 24.8426 24.736 24.8426 24.0681V22.8863C24.8426 22.2441 24.6371 22.0386 23.9692 22.0386H22.7874C22.1194 22.0386 21.9139 22.2441 21.9139 22.8863V24.0681C21.9139 24.736 22.1194 24.9159 22.7874 24.9159ZM29.544 24.9159H30.7258C31.3937 24.9159 31.5992 24.736 31.5992 24.0681V22.8863C31.5992 22.2441 31.3937 22.0386 30.7258 22.0386H29.544C28.876 22.0386 28.6705 22.2441 28.6705 22.8863V24.0681C28.6705 24.736 28.876 24.9159 29.544 24.9159ZM9.27426 31.5697H10.456C11.124 31.5697 11.3295 31.3899 11.3295 30.7219V29.5402C11.3295 28.8979 11.124 28.7181 10.456 28.7181H9.27426C8.60627 28.7181 8.40076 28.8979 8.40076 29.5402V30.7219C8.40076 31.3899 8.60627 31.5697 9.27426 31.5697ZM16.0308 31.5697H17.2126C17.8805 31.5697 18.0861 31.3899 18.0861 30.7219V29.5402C18.0861 28.8979 17.8805 28.7181 17.2126 28.7181H16.0308C15.3629 28.7181 15.1573 28.8979 15.1573 29.5402V30.7219C15.1573 31.3899 15.3629 31.5697 16.0308 31.5697ZM22.7874 31.5697H23.9692C24.6371 31.5697 24.8426 31.3899 24.8426 30.7219V29.5402C24.8426 28.8979 24.6371 28.7181 23.9692 28.7181H22.7874C22.1194 28.7181 21.9139 28.8979 21.9139 29.5402V30.7219C21.9139 31.3899 22.1194 31.5697 22.7874 31.5697Z" fill="black"/>
</svg>
