<svg width="58" height="40" viewBox="0 0 58 40" fill="none" xmlns="http://www.w3.org/2000/svg">
<path d="M25.7518 27.4332H21.8903L24.3056 13.4325H28.1668L25.7518 27.4332Z" fill="#15195A"/>
<path d="M39.7497 13.7748C38.9881 13.4915 37.78 13.1787 36.2863 13.1787C32.4729 13.1787 29.7876 15.0851 29.7712 17.8107C29.7395 19.8216 31.6938 20.9385 33.1554 21.609C34.6494 22.2941 35.1572 22.7413 35.1572 23.352C35.142 24.29 33.95 24.7223 32.8383 24.7223C31.2966 24.7223 30.4705 24.4994 29.2152 23.9776L28.7067 23.7539L28.1663 26.8968C29.072 27.2836 30.7406 27.6268 32.4729 27.6419C36.5247 27.6419 39.1625 25.765 39.1938 22.8605C39.2092 21.2667 38.1772 20.0455 35.9524 19.0475C34.6019 18.4069 33.7747 17.975 33.7747 17.3195C33.7906 16.7237 34.4743 16.1133 35.9989 16.1133C37.2542 16.0834 38.1766 16.3663 38.8753 16.6494L39.2246 16.7981L39.7497 13.7748Z" fill="#15195A"/>
<path fill-rule="evenodd" clip-rule="evenodd" d="M46.6619 13.4325H49.6488L52.764 27.433H49.1887C49.1887 27.433 48.8388 25.8244 48.7279 25.3328H43.7701C43.6267 25.705 42.9596 27.433 42.9596 27.433H38.9079L44.6436 14.5942C45.041 13.6855 45.7408 13.4325 46.6619 13.4325ZM46.424 18.556C46.424 18.556 45.2003 21.669 44.8823 22.4733H48.092C47.9332 21.7733 47.2019 18.422 47.2019 18.422L46.9321 17.2156C46.8184 17.5262 46.6541 17.9534 46.5432 18.2414C46.4681 18.4367 46.4175 18.5681 46.424 18.556Z" fill="#15195A"/>
<path fill-rule="evenodd" clip-rule="evenodd" d="M5.159 13.4325H11.3718C12.2139 13.462 12.8972 13.7152 13.1195 14.6094L14.4696 21.0415C14.4698 21.0421 14.47 21.0428 14.4702 21.0434L14.8834 22.9797L18.6651 13.4325H22.7483L16.6787 27.4184H12.5953L9.15356 15.253C7.96604 14.6022 6.61075 14.0787 5.09544 13.7154L5.159 13.4325Z" fill="#15195A"/>
</svg>
