<svg width="40" height="40" viewBox="0 0 40 40" fill="none" xmlns="http://www.w3.org/2000/svg">
<path d="M19.9874 40C30.9401 40 40 30.9596 40 20C40 9.04042 30.9148 0 19.9874 0C9.0347 0 0 9.04042 0 20C0 30.9596 9.05992 40 19.9874 40ZM19.9874 26.6919C13.9306 26.6919 9.26185 28.9899 7.34384 31.4394C4.61831 28.4091 2.97794 24.4192 2.97794 20C2.97794 10.5556 10.5237 2.95455 19.9874 2.95455C29.4259 2.95455 37.0221 10.5556 37.0473 20C37.0473 24.4192 35.3817 28.4344 32.6561 31.4647C30.7382 29.0151 26.0946 26.6919 19.9874 26.6919ZM19.9874 23.3333C23.7981 23.3586 26.7508 20.101 26.7508 15.8586C26.7508 11.8687 23.7729 8.56064 19.9874 8.56064C16.2271 8.56064 13.1987 11.8687 13.224 15.8586C13.2492 20.101 16.2019 23.2829 19.9874 23.3333Z" fill="black"/>
</svg>
