<svg width="40" height="40" viewBox="0 0 40 40" fill="none" xmlns="http://www.w3.org/2000/svg">
<path d="M19.9874 40C30.9401 40 40 30.9596 40 20C40 9.04042 30.9148 0 19.9874 0C9.0347 0 0 9.04042 0 20C0 30.9596 9.05992 40 19.9874 40ZM19.9874 37.0455C10.5489 37.0455 2.97794 29.4444 2.97794 20C2.97794 10.5556 10.5237 2.95455 19.9874 2.95455C29.4259 2.95455 37.0221 10.5556 37.0473 20C37.0473 29.4444 29.4511 37.0455 19.9874 37.0455ZM9.43851 22.0455H19.9874C20.6688 22.0455 21.224 21.4899 21.224 20.8081V7.19696C21.224 6.51517 20.6688 5.98486 19.9874 5.98486C19.306 5.98486 18.776 6.51517 18.776 7.19696V19.5959H9.43851C8.7571 19.5959 8.22713 20.1262 8.22713 20.8081C8.22713 21.4899 8.7571 22.0455 9.43851 22.0455Z" fill="black"/>
</svg>
