<svg width="40" height="40" viewBox="0 0 40 40" fill="none" xmlns="http://www.w3.org/2000/svg">
<path d="M19.9874 40C30.9401 40 40 30.9596 40 20C40 9.04042 30.9148 0 19.9874 0C9.0347 0 0 9.04042 0 20C0 30.9596 9.05992 40 19.9874 40ZM19.9874 37.0455C10.5489 37.0455 2.97794 29.4444 2.97794 20C2.97794 10.5556 10.5237 2.95455 19.9874 2.95455C29.4259 2.95455 37.0221 10.5556 37.0473 20C37.0473 29.4444 29.4511 37.0455 19.9874 37.0455ZM14.2082 30.202L19.9874 25.9849L25.7413 30.202C26.8013 30.9848 27.9117 30.1768 27.5079 28.9394L25.2113 22.1212L31.041 17.9798C31.9748 17.298 31.6972 15.8838 30.3849 15.8838L23.2177 15.9344L21.0473 9.09089C20.6688 7.92927 19.2807 7.92927 18.9274 9.09089L16.7319 15.9344L9.58989 15.8838C8.27762 15.8838 7.94953 17.2728 8.93376 17.9798L14.7382 22.1212L12.4669 28.9394C12.0631 30.1768 13.1735 30.9848 14.2082 30.202Z" fill="black"/>
</svg>
